<svg xmlns="http://www.w3.org/2000/svg" width="1200" height="760" viewBox="0 0 1200 760" role="img" aria-labelledby="title desc">
  <title id="title">Transcript preview placeholder</title>
  <desc id="desc">Placeholder document for BSC BUSINESS INFORMATION TECHNOLOGY</desc>
  <defs><linearGradient id="bg" x1="0" y1="0" x2="1" y2="1"><stop stop-color="#fafaff"/><stop offset="1" stop-color="#eee8ff"/></linearGradient></defs>
  <rect width="1200" height="760" rx="30" fill="url(#bg)"/>
  <rect x="70" y="62" width="1060" height="636" rx="20" fill="#fff" stroke="#d9d0f2" stroke-width="3"/>
  <circle cx="600" cy="152" r="42" fill="#6366f1"/><path d="M578 154l16 16 30-36" fill="none" stroke="#fff" stroke-width="8" stroke-linecap="round" stroke-linejoin="round"/>
  <text x="600" y="230" text-anchor="middle" fill="#211938" font-family="Arial,sans-serif" font-size="30" font-weight="700">BSC BUSINESS INFORMATION TECHNOLOGY</text>
  <text x="600" y="270" text-anchor="middle" fill="#6d6680" font-family="Arial,sans-serif" font-size="18">Upper Second Class Honours · 2020</text>
  <text x="600" y="330" text-anchor="middle" fill="#785bd1" font-family="Arial,sans-serif" font-size="15" font-weight="700" letter-spacing="3">TRANSCRIPT PREVIEW PLACEHOLDER</text>
  <g fill="#ece8f5"><rect x="160" y="382" width="880" height="18" rx="9"/><rect x="160" y="426" width="760" height="15" rx="7"/><rect x="160" y="468" width="850" height="15" rx="7"/><rect x="160" y="510" width="700" height="15" rx="7"/><rect x="160" y="552" width="820" height="15" rx="7"/></g>
  <rect x="442" y="615" width="316" height="38" rx="19" fill="#f1edff"/><text x="600" y="640" text-anchor="middle" fill="#7656ce" font-family="Arial,sans-serif" font-size="13">Replace with final transcript scan</text>
</svg>
